<?xml version="1.0" encoding="UTF-8" standalone="no"?>
<!-- Created with Inkscape (http://www.inkscape.org/) -->

<svg
   xmlns:dc="http://purl.org/dc/elements/1.1/"
   xmlns:cc="http://creativecommons.org/ns#"
   xmlns:rdf="http://www.w3.org/1999/02/22-rdf-syntax-ns#"
   xmlns:svg="http://www.w3.org/2000/svg"
   xmlns="http://www.w3.org/2000/svg"
   xmlns:sodipodi="http://sodipodi.sourceforge.net/DTD/sodipodi-0.dtd"
   xmlns:inkscape="http://www.inkscape.org/namespaces/inkscape"
   width="1000mm"
   height="1297mm"
   viewBox="0 0 3543.3064 4595.6692"
   id="svg2"
   version="1.1"
   inkscape:version="0.91 r13725"
   sodipodi:docname="whale-drawing-real.svg"
   inkscape:export-filename="/home/shisha/Resources/The Story of Yunus/whale-drawing-real.png"
   inkscape:export-xdpi="0.43754399"
   inkscape:export-ydpi="0.43754399">
  <defs
     id="defs4" />
  <sodipodi:namedview
     id="base"
     pagecolor="#ffffff"
     bordercolor="#666666"
     borderopacity="1.0"
     inkscape:pageopacity="0.0"
     inkscape:pageshadow="2"
     inkscape:zoom="0.13196104"
     inkscape:cx="2474.1261"
     inkscape:cy="2274.2609"
     inkscape:document-units="px"
     inkscape:current-layer="layer1"
     showgrid="false"
     units="mm"
     inkscape:window-width="1364"
     inkscape:window-height="687"
     inkscape:window-x="0"
     inkscape:window-y="25"
     inkscape:window-maximized="1"
     borderlayer="false" />
  <metadata
     id="metadata7">
    <rdf:RDF>
      <cc:Work
         rdf:about="">
        <dc:format>image/svg+xml</dc:format>
        <dc:type
           rdf:resource="http://purl.org/dc/dcmitype/StillImage" />
        <dc:title />
      </cc:Work>
    </rdf:RDF>
  </metadata>
  <g
     inkscape:label="base"
     inkscape:groupmode="layer"
     id="layer1"
     transform="translate(0,3543.3068)">
    <path
       style="fill:#6093a3;fill-opacity:1;fill-rule:evenodd;stroke:#000000;stroke-width:0;stroke-linecap:round;stroke-linejoin:miter;stroke-miterlimit:4;stroke-dasharray:none;stroke-opacity:1"
       d="m 547.82544,-1933.0133 c 17.05049,-60.624 47.36246,-147.7709 117.45891,-250.0738 70.09645,-102.3029 168.61037,-130.7204 176.18836,-130.7204 7.578,0 -43.07435,386.4219 -26.52298,471.7301 26.52007,129.9362 103.26584,197.2796 251.38187,263.4406 -65.5286,-8.8201 -245.76734,-45.1123 -42.8676,24.7828 144.6782,48.2261 1071.6902,-105.1596 1307.4621,-142.6688 235.7718,-37.5091 764.8468,21.4339 872.0158,96.4522 107.169,75.0183 154.1275,116.5463 143.4106,137.9801 -10.7169,21.4338 -334.9032,156.7347 -458.1475,194.2438 -123.2444,37.5092 -471.5437,37.5092 -594.7881,42.8676 -123.2444,5.3585 -310.7902,-10.7169 -278.6395,16.0754 32.1507,26.7923 691.2402,21.4338 868.0691,-10.7169 176.8289,-32.1507 451.6794,-193.4986 494.547,-188.1401 42.8676,5.3584 57.7543,76.1512 41.679,167.2448 -16.0754,91.0937 -359.3971,567.45728 -782.7147,637.11716 -423.3177,69.65986 -1022.1811,-69.65988 -1407.9896,-396.52536 -385.8084,-326.8655 -499.75757,-621.7019 -634.26697,-652.0139 -134.50939,-30.312 -467.70871,-31.881 -457.38198,-59.419 28.41748,-75.78 155.34888,-145.8764 225.44533,-174.2938 70.09645,-28.4175 185.66086,-47.3625 185.66086,-47.3625 z"
       id="path4136"
       inkscape:connector-curvature="0"
       sodipodi:nodetypes="csscccssssssssssssssc" />
    <path
       style="fill:#44b3bf;fill-opacity:1;fill-rule:evenodd;stroke:#000000;stroke-width:0;stroke-linecap:round;stroke-linejoin:miter;stroke-miterlimit:4;stroke-dasharray:none;stroke-opacity:1"
       d="m 2647.0747,-1991.2376 c -53.5845,-107.169 -96.4521,-112.5274 -128.6028,-192.9042 -32.1507,-80.3768 91.0936,-139.3197 112.5274,-64.3014 21.4338,75.0183 16.0754,257.2056 16.0754,257.2056 z"
       id="path4144"
       inkscape:connector-curvature="0" />
    <path
       style="fill:#000000;fill-opacity:1;fill-rule:evenodd;stroke:#000000;stroke-width:0;stroke-linecap:butt;stroke-linejoin:miter;stroke-miterlimit:4;stroke-dasharray:none;stroke-opacity:1"
       d="m 2372.498,-1382.6254 c 15.235,-17.2574 26.0683,-27.7964 40.9645,-25.6582 14.8962,2.1382 31.6544,19.2437 31.6544,19.2437 0,0 0,19.2437 -22.3443,21.3819 -22.3443,2.1381 -46.5506,-4.2764 -46.5506,-4.2764 z"
       id="path4146"
       inkscape:connector-curvature="0"
       sodipodi:nodetypes="cscscc" />
    <path
       style="fill:#44b3bf;fill-opacity:1;fill-rule:evenodd;stroke:#000000;stroke-width:0;stroke-linecap:round;stroke-linejoin:miter;stroke-miterlimit:4;stroke-dasharray:none;stroke-opacity:1"
       d="m 1819.0339,-1132.114 c -79.7203,17.1209 -206.1233,51.4984 -323.1464,44.8063 -117.0232,-6.692 -360.1441,-96.5517 -466.9909,-179.5129 -106.84683,-82.9612 -291.43312,-270.6623 -291.43312,-270.6623 0,0 286.11752,375.5024 474.88602,524.1627 156.6177,132.58488 588.0899,439.39289 1209.6702,428.67599 592.1089,24.11303 946.7141,-552.67969 961.87,-575.41369 15.156,-22.734 30.7831,-59.5627 36.1416,-79.6569 5.3584,-20.0942 9.3773,-79.0372 6.698,-92.4333 -2.6792,-13.3961 -8.0377,-42.8676 -17.4149,-57.6033 -9.3773,-14.7358 -18.7546,-20.0942 -34.83,-20.0942 -16.0753,0 -103.1502,41.528 -121.9047,49.5657 -18.7546,8.0376 -227.7342,103.1501 -246.4888,105.8294 -18.7546,2.6792 -85.7352,30.8111 -117.8859,33.4903 -32.1507,2.6792 -148.697,21.4338 -424.6573,28.1318 -275.9602,6.6981 -430.6855,-10.047 -436.7137,-11.3867 -6.0283,-1.3396 -128.0799,54.9801 -207.8001,72.1011 z"
       id="path4148"
       inkscape:connector-curvature="0"
       sodipodi:nodetypes="zzzcccssssssssscz" />
  </g>
  <g
     inkscape:groupmode="layer"
     id="layer2"
     inkscape:label="details">
    <path
       style="fill:#6093a3;fill-opacity:1;fill-rule:evenodd;stroke:#7ff3e2;stroke-width:0;stroke-linecap:round;stroke-linejoin:miter;stroke-miterlimit:4;stroke-dasharray:none;stroke-opacity:1"
       d="m 2032.8493,2661.0321 c 0,37.5091 -18.7546,182.1873 -107.169,225.0549 -88.4144,42.8676 -369.7331,8.0377 -345.6201,-10.7169 24.113,-18.7546 180.7302,-101.1363 200.9419,-123.2444 41.8137,-45.7372 80.3768,-112.5274 80.3768,-112.5274"
       id="path4150"
       inkscape:connector-curvature="0"
       sodipodi:nodetypes="csssc" />
  </g>
</svg>
